<mxfile host="drawio-plugin" modified="2023-09-14T14:10:28.144Z" agent="5.0 (X11; Linux x86_64) AppleWebKit/537.36 (KHTML, like Gecko) Chrome/111.0.0.0 Safari/537.36" etag="eLo-edXke9a4V8bNNyl3" version="20.5.3" type="embed"><diagram id="K_GqjLfy2iTpbrmdMKVe" name="Page-1"><mxGraphModel dx="916" dy="504" grid="1" gridSize="10" guides="1" tooltips="1" connect="1" arrows="1" fold="1" page="1" pageScale="1" pageWidth="850" pageHeight="1100" math="0" shadow="0"><root><mxCell id="0"/><mxCell id="1" parent="0"/><mxCell id="5ZlYv5UvaMayHfF3K6Ik-12" style="edgeStyle=orthogonalEdgeStyle;rounded=0;orthogonalLoop=1;jettySize=auto;html=1;exitX=0.25;exitY=1;exitDx=0;exitDy=0;entryX=0.5;entryY=0;entryDx=0;entryDy=0;" parent="1" source="5ZlYv5UvaMayHfF3K6Ik-1" target="5ZlYv5UvaMayHfF3K6Ik-10" edge="1"><mxGeometry relative="1" as="geometry"/></mxCell><mxCell id="5ZlYv5UvaMayHfF3K6Ik-13" value="Sends HTTP Request" style="text;html=1;align=center;verticalAlign=middle;resizable=0;points=[];labelBackgroundColor=#ffffff;" parent="5ZlYv5UvaMayHfF3K6Ik-12" vertex="1" connectable="0"><mxGeometry x="-0.4133" y="2" relative="1" as="geometry"><mxPoint x="-4.5" y="-8" as="offset"/></mxGeometry></mxCell><mxCell id="5ZlYv5UvaMayHfF3K6Ik-14" style="edgeStyle=orthogonalEdgeStyle;rounded=0;orthogonalLoop=1;jettySize=auto;html=1;exitX=0.75;exitY=1;exitDx=0;exitDy=0;entryX=0.5;entryY=0;entryDx=0;entryDy=0;" parent="1" source="5ZlYv5UvaMayHfF3K6Ik-1" target="5ZlYv5UvaMayHfF3K6Ik-11" edge="1"><mxGeometry relative="1" as="geometry"/></mxCell><mxCell id="5ZlYv5UvaMayHfF3K6Ik-15" value="Reads HTTP response" style="text;html=1;align=center;verticalAlign=middle;resizable=0;points=[];labelBackgroundColor=#ffffff;" parent="5ZlYv5UvaMayHfF3K6Ik-14" vertex="1" connectable="0"><mxGeometry x="-0.7854" y="2" relative="1" as="geometry"><mxPoint x="0.5" y="14" as="offset"/></mxGeometry></mxCell><mxCell id="5ZlYv5UvaMayHfF3K6Ik-1" value="" style="rounded=0;whiteSpace=wrap;html=1;dashed=1;" parent="1" vertex="1"><mxGeometry x="60" y="115" width="690" height="130" as="geometry"/></mxCell><mxCell id="5ZlYv5UvaMayHfF3K6Ik-6" value="User" style="shape=umlActor;verticalLabelPosition=bottom;labelBackgroundColor=#ffffff;verticalAlign=top;html=1;outlineConnect=0;" parent="1" vertex="1"><mxGeometry x="385" y="150" width="30" height="60" as="geometry"/></mxCell><mxCell id="5ZlYv5UvaMayHfF3K6Ik-9" value="app-dropwizard" style="shape=component;align=center;spacingLeft=36;verticalAlign=top;" parent="1" vertex="1"><mxGeometry x="40" y="350" width="710" height="260" as="geometry"/></mxCell><mxCell id="5ZlYv5UvaMayHfF3K6Ik-20" style="edgeStyle=orthogonalEdgeStyle;rounded=0;orthogonalLoop=1;jettySize=auto;html=1;exitX=0.5;exitY=1;exitDx=0;exitDy=0;entryX=0.5;entryY=0;entryDx=0;entryDy=0;" parent="1" source="5ZlYv5UvaMayHfF3K6Ik-10" target="5ZlYv5UvaMayHfF3K6Ik-19" edge="1"><mxGeometry relative="1" as="geometry"/></mxCell><mxCell id="5ZlYv5UvaMayHfF3K6Ik-21" value="handles HTTP request" style="text;html=1;align=center;verticalAlign=middle;resizable=0;points=[];labelBackgroundColor=#ffffff;" parent="5ZlYv5UvaMayHfF3K6Ik-20" vertex="1" connectable="0"><mxGeometry x="0.2667" relative="1" as="geometry"><mxPoint y="-11.67" as="offset"/></mxGeometry></mxCell><mxCell id="5ZlYv5UvaMayHfF3K6Ik-10" value="" style="whiteSpace=wrap;html=1;aspect=fixed;align=center;" parent="1" vertex="1"><mxGeometry x="190" y="330" width="30" height="30" as="geometry"/></mxCell><mxCell id="5ZlYv5UvaMayHfF3K6Ik-11" value="" style="whiteSpace=wrap;html=1;aspect=fixed;align=center;" parent="1" vertex="1"><mxGeometry x="580" y="330" width="30" height="30" as="geometry"/></mxCell><mxCell id="5ZlYv5UvaMayHfF3K6Ik-17" value="boundary" style="shape=component;align=left;spacingLeft=36;" parent="1" vertex="1"><mxGeometry x="340" y="680" width="120" height="60" as="geometry"/></mxCell><mxCell id="5ZlYv5UvaMayHfF3K6Ik-29" style="edgeStyle=orthogonalEdgeStyle;rounded=0;orthogonalLoop=1;jettySize=auto;html=1;exitX=1;exitY=0.75;exitDx=0;exitDy=0;" parent="1" source="5ZlYv5UvaMayHfF3K6Ik-19" target="5ZlYv5UvaMayHfF3K6Ik-28" edge="1"><mxGeometry relative="1" as="geometry"/></mxCell><mxCell id="5ZlYv5UvaMayHfF3K6Ik-30" value="reads response" style="text;html=1;align=center;verticalAlign=middle;resizable=0;points=[];labelBackgroundColor=#ffffff;" parent="5ZlYv5UvaMayHfF3K6Ik-29" vertex="1" connectable="0"><mxGeometry x="-0.2352" relative="1" as="geometry"><mxPoint x="13.57" y="-10" as="offset"/></mxGeometry></mxCell><mxCell id="5ZlYv5UvaMayHfF3K6Ik-31" style="edgeStyle=orthogonalEdgeStyle;rounded=0;orthogonalLoop=1;jettySize=auto;html=1;exitX=1;exitY=0.25;exitDx=0;exitDy=0;entryX=0.5;entryY=1;entryDx=0;entryDy=0;" parent="1" source="5ZlYv5UvaMayHfF3K6Ik-19" target="5ZlYv5UvaMayHfF3K6Ik-11" edge="1"><mxGeometry relative="1" as="geometry"><Array as="points"><mxPoint x="370" y="425"/><mxPoint x="370" y="390"/><mxPoint x="595" y="390"/></Array></mxGeometry></mxCell><mxCell id="5ZlYv5UvaMayHfF3K6Ik-36" value="sends HTTP response" style="text;html=1;align=center;verticalAlign=middle;resizable=0;points=[];labelBackgroundColor=#ffffff;" parent="5ZlYv5UvaMayHfF3K6Ik-31" vertex="1" connectable="0"><mxGeometry x="-0.0229" y="-1" relative="1" as="geometry"><mxPoint x="36.83" y="8.97" as="offset"/></mxGeometry></mxCell><mxCell id="5ZlYv5UvaMayHfF3K6Ik-37" style="edgeStyle=orthogonalEdgeStyle;rounded=0;orthogonalLoop=1;jettySize=auto;html=1;exitX=0.5;exitY=1;exitDx=0;exitDy=0;entryX=0.5;entryY=0;entryDx=0;entryDy=0;" parent="1" source="5ZlYv5UvaMayHfF3K6Ik-19" target="5ZlYv5UvaMayHfF3K6Ik-24" edge="1"><mxGeometry relative="1" as="geometry"/></mxCell><mxCell id="5ZlYv5UvaMayHfF3K6Ik-38" value="invokes" style="text;html=1;align=center;verticalAlign=middle;resizable=0;points=[];labelBackgroundColor=#ffffff;" parent="5ZlYv5UvaMayHfF3K6Ik-37" vertex="1" connectable="0"><mxGeometry x="-0.2605" y="-1" relative="1" as="geometry"><mxPoint as="offset"/></mxGeometry></mxCell><mxCell id="5ZlYv5UvaMayHfF3K6Ik-19" value="ToDoResource" style="rounded=0;whiteSpace=wrap;html=1;align=center;" parent="1" vertex="1"><mxGeometry x="145" y="410" width="120" height="60" as="geometry"/></mxCell><mxCell id="5ZlYv5UvaMayHfF3K6Ik-25" style="edgeStyle=orthogonalEdgeStyle;rounded=0;orthogonalLoop=1;jettySize=auto;html=1;exitX=0.5;exitY=1;exitDx=0;exitDy=0;entryX=0.25;entryY=0;entryDx=0;entryDy=0;" parent="1" source="5ZlYv5UvaMayHfF3K6Ik-24" target="5ZlYv5UvaMayHfF3K6Ik-17" edge="1"><mxGeometry relative="1" as="geometry"/></mxCell><mxCell id="5ZlYv5UvaMayHfF3K6Ik-26" value="invokes input boundary" style="text;html=1;align=center;verticalAlign=middle;resizable=0;points=[];labelBackgroundColor=#ffffff;" parent="5ZlYv5UvaMayHfF3K6Ik-25" vertex="1" connectable="0"><mxGeometry x="-0.0744" y="1" relative="1" as="geometry"><mxPoint y="16" as="offset"/></mxGeometry></mxCell><mxCell id="5ZlYv5UvaMayHfF3K6Ik-24" value="ToDoController" style="rounded=0;whiteSpace=wrap;html=1;align=center;" parent="1" vertex="1"><mxGeometry x="145" y="510" width="120" height="60" as="geometry"/></mxCell><mxCell id="5ZlYv5UvaMayHfF3K6Ik-32" style="edgeStyle=orthogonalEdgeStyle;rounded=0;orthogonalLoop=1;jettySize=auto;html=1;exitX=0.5;exitY=1;exitDx=0;exitDy=0;entryX=0.75;entryY=0;entryDx=0;entryDy=0;dashed=1;" parent="1" source="5ZlYv5UvaMayHfF3K6Ik-27" target="5ZlYv5UvaMayHfF3K6Ik-17" edge="1"><mxGeometry relative="1" as="geometry"/></mxCell><mxCell id="5ZlYv5UvaMayHfF3K6Ik-33" value="implements output boundary" style="text;html=1;align=center;verticalAlign=middle;resizable=0;points=[];labelBackgroundColor=#ffffff;" parent="5ZlYv5UvaMayHfF3K6Ik-32" vertex="1" connectable="0"><mxGeometry x="0.1482" y="-1" relative="1" as="geometry"><mxPoint x="27.71" y="16" as="offset"/></mxGeometry></mxCell><mxCell id="5ZlYv5UvaMayHfF3K6Ik-34" style="edgeStyle=orthogonalEdgeStyle;rounded=0;orthogonalLoop=1;jettySize=auto;html=1;exitX=0.5;exitY=0;exitDx=0;exitDy=0;entryX=1;entryY=0.5;entryDx=0;entryDy=0;" parent="1" source="5ZlYv5UvaMayHfF3K6Ik-27" target="5ZlYv5UvaMayHfF3K6Ik-28" edge="1"><mxGeometry relative="1" as="geometry"/></mxCell><mxCell id="5ZlYv5UvaMayHfF3K6Ik-35" value="updates" style="text;html=1;align=center;verticalAlign=middle;resizable=0;points=[];labelBackgroundColor=#ffffff;" parent="5ZlYv5UvaMayHfF3K6Ik-34" vertex="1" connectable="0"><mxGeometry x="-0.3047" y="19" relative="1" as="geometry"><mxPoint x="-14.96" y="-29.03" as="offset"/></mxGeometry></mxCell><mxCell id="5ZlYv5UvaMayHfF3K6Ik-27" value="Presenter" style="rounded=0;whiteSpace=wrap;html=1;align=center;" parent="1" vertex="1"><mxGeometry x="535" y="510" width="120" height="60" as="geometry"/></mxCell><mxCell id="5ZlYv5UvaMayHfF3K6Ik-28" value="HttpResponse&lt;br&gt;ViewModel" style="rounded=0;whiteSpace=wrap;html=1;align=center;" parent="1" vertex="1"><mxGeometry x="400" y="440" width="120" height="60" as="geometry"/></mxCell></root></mxGraphModel></diagram></mxfile>